<svg width="23" height="28" viewBox="0 0 23 28" fill="none" xmlns="http://www.w3.org/2000/svg">
<path d="M22.5 28H0V0H22.5V28Z" stroke="#E5E7EB"/>
<g clip-path="url(#clip0_95_289)">
<path d="M7.15234 12.6914C8.46875 13.5 9.60938 14.5703 10.5039 15.8359C10.7773 16.2227 11.0273 16.6289 11.25 17.0469C11.4727 16.625 11.7227 16.2227 11.9961 15.8359C12.8906 14.5703 14.0312 13.5 15.3477 12.6914C17.0938 11.6172 19.1445 11 21.3281 11H21.7148C22.1484 11 22.5 11.3516 22.5 11.7852C22.5 17.5664 17.8164 22.25 12.0352 22.25H11.25H10.4648C4.68359 22.25 0 17.5664 0 11.7852C0 11.3516 0.351562 11 0.785156 11H1.17188C3.35547 11 5.40625 11.6172 7.15234 12.6914ZM11.7773 4.96875C12.3906 5.62891 14.1641 7.77344 15.0742 11.3984C13.5898 12.2422 12.2852 13.3828 11.25 14.7422C10.2148 13.3828 8.91016 12.2461 7.42578 11.3984C8.33203 7.77344 10.1055 5.62891 10.7227 4.96875C10.8594 4.82422 11.0508 4.75 11.25 4.75C11.4492 4.75 11.6406 4.82422 11.7773 4.96875Z" fill="#EC4899"/>
</g>
<defs>
<clipPath id="clip0_95_289">
<path d="M0 3.5H22.5V23.5H0V3.5Z" fill="white"/>
</clipPath>
</defs>
</svg>
